<svg width="70" height="70" viewBox="0 0 70 70" fill="none" xmlns="http://www.w3.org/2000/svg">
<g filter="url(#filter0_d)">
<path d="M5 31C5 14.4315 18.4315 1 35 1C51.5685 1 65 14.4315 65 31C65 47.5685 51.5685 61 35 61C18.4315 61 5 47.5685 5 31Z" fill="url(#paint0_linear)"/>
<path fill-rule="evenodd" clip-rule="evenodd" d="M45.1997 43.4011C45.8076 44.009 46.7932 44.009 47.4011 43.4011C48.009 42.7932 48.009 41.8076 47.4011 41.1997L37.2012 30.9999L47.4008 20.8003C48.0087 20.1924 48.0087 19.2068 47.4008 18.5989C46.7929 17.991 45.8074 17.991 45.1995 18.5989L34.9998 28.7985L24.8001 18.5987C24.1922 17.9908 23.2066 17.9908 22.5987 18.5987C21.9908 19.2066 21.9908 20.1922 22.5987 20.8001L32.7985 30.9999L22.5985 41.1998C21.9906 41.8077 21.9906 42.7933 22.5985 43.4012C23.2064 44.0091 24.192 44.0091 24.7999 43.4012L34.9998 33.2013L45.1997 43.4011Z" fill="white"/>
</g>
<defs>
<filter id="filter0_d" x="0" y="0" width="70" height="70" filterUnits="userSpaceOnUse" color-interpolation-filters="sRGB">
<feFlood flood-opacity="0" result="BackgroundImageFix"/>
<feColorMatrix in="SourceAlpha" type="matrix" values="0 0 0 0 0 0 0 0 0 0 0 0 0 0 0 0 0 0 127 0"/>
<feOffset dy="4"/>
<feGaussianBlur stdDeviation="2.5"/>
<feColorMatrix type="matrix" values="0 0 0 0 0.176471 0 0 0 0 0.160784 0 0 0 0 0.14902 0 0 0 0.08 0"/>
<feBlend mode="normal" in2="BackgroundImageFix" result="effect1_dropShadow"/>
<feBlend mode="normal" in="SourceGraphic" in2="effect1_dropShadow" result="shape"/>
</filter>
<linearGradient id="paint0_linear" x1="52.9562" y1="-70.625" x2="-13.9368" y2="-2.16937" gradientUnits="userSpaceOnUse">
<stop stop-color="#F7CCE0"/>
<stop offset="1" stop-color="#D70064"/>
</linearGradient>
</defs>
</svg>
